<?xml version="1.0" encoding="UTF-8"?>
<svg width="50px" height="50px" viewBox="0 0 50 50" version="1.1" xmlns="http://www.w3.org/2000/svg" xmlns:xlink="http://www.w3.org/1999/xlink">
    <title>colorhunt-logo-face</title>
    <g id="colorhunt-logo-face" stroke="none" stroke-width="1" fill="none" fill-rule="evenodd">
        <path d="M10,0.451104101 L40,0.451104101 L40,14.4511041 L39.8264051,14.5200795 C30.2441744,18.3274389 19.5645188,18.3027415 10,14.4511041 L10,14.4511041 L10,14.4511041 L10,0.451104101 Z" id="Rectangle" fill="#FFFFFF"></path>
        <g id="Group-14" transform="translate(9.000000, 8.000000)" fill="#111111">
            <g id="Group-9" transform="translate(0.000000, 5.451104)">
                <path d="M30.0950915,0.137388013 C30.7667886,-0.134460568 31.5319621,0.190082019 31.8037098,0.862082019 C32.0753565,1.53388013 31.7509148,2.29885174 31.0791167,2.57059937 C29.9435912,3.02978423 28.7923664,3.43502334 27.6274065,3.78678188 L26.751142,4.04058044 L24.1265363,4.67452366 C21.454082,5.2244795 18.7215647,5.50157729 15.9498801,5.50157729 C13.4238385,5.50157729 10.9305035,5.27115912 8.48547614,4.81407586 L7.7789752,4.67427216 L7.6722776,4.67452366 L5.04767192,4.0126183 C3.61756467,3.61196215 2.20744479,3.13135647 0.820643533,2.57059937 C0.148744479,2.29885174 -0.175697161,1.53388013 0.0960504732,0.862082019 C0.367798107,0.190082019 1.13276972,-0.134460568 1.80466877,0.137388013 C6.29991167,1.95523028 11.0590284,2.87697161 15.9498801,2.87697161 C20.8407319,2.87697161 25.5998486,1.95523028 30.0950915,0.137388013 Z" id="Path"></path>
            </g>
            <path d="M7.01612618,4.03785489 C8.13117981,4.03785489 9.03505363,3.13398107 9.03505363,2.01892744 C9.03505363,0.903873817 8.13117981,0 7.01612618,0 C5.90107256,0 4.99719874,0.903873817 4.99719874,2.01892744 C4.99719874,3.13398107 5.90107256,4.03785489 7.01612618,4.03785489" id="Fill-10"></path>
            <path d="M24.8836341,4.03785489 C25.9986877,4.03785489 26.9025615,3.13398107 26.9025615,2.01892744 C26.9025615,0.903873817 25.9986877,0 24.8836341,0 C23.7685804,0 22.8647066,0.903873817 22.8647066,2.01892744 C22.8647066,3.13398107 23.7685804,4.03785489 24.8836341,4.03785489" id="Fill-12"></path>
        </g>
    </g>
</svg>